<?xml version="1.0" encoding="utf-8"?>
<!-- Generator: Adobe Illustrator 25.4.1, SVG Export Plug-In . SVG Version: 6.00 Build 0)  -->
<svg version="1.1" id="Layer_1" xmlns="http://www.w3.org/2000/svg" xmlns:xlink="http://www.w3.org/1999/xlink" x="0px" y="0px"
	 viewBox="0 0 480 128" enable-background="new 0 0 480 128" xml:space="preserve">
<polygon fill="#274247" stroke="#274247" stroke-width="2" stroke-miterlimit="10" points="1,127 1,37.6 126,68.9 126,127 "/>
<rect x="8" y="83" fill="#FFFFFF" width="18" height="18"/>
<polygon fill="#FFFFFF" stroke="#274247" stroke-width="2" stroke-miterlimit="10" points="35,127 35,35.3 115,2.1 115,127 "/>
<rect x="53" y="69" fill="#FFFFFF" stroke="#274247" stroke-width="2" stroke-miterlimit="10" width="44" height="13"/>
<rect x="53" y="102" fill="#FFFFFF" stroke="#274247" stroke-width="2" stroke-miterlimit="10" width="44" height="25"/>
<line fill="none" stroke="#274247" stroke-width="2" stroke-miterlimit="10" x1="75" y1="102" x2="75" y2="127"/>
<rect x="196" y="1" fill="#FFFFFF" stroke="#274247" stroke-width="2" stroke-miterlimit="10" width="20" height="35"/>
<polygon fill="#274247" points="230,112 230,59 241,59 241,43.4 177.3,0.6 114,43.4 114,59 125,59 125,112 "/>
<rect x="160" y="79" fill="#FFFFFF" width="34" height="34"/>
<circle fill="none" stroke="#FFFFFF" stroke-width="2" stroke-miterlimit="10" cx="177.5" cy="47.5" r="15.5"/>
<rect x="126" y="112" fill="#FFFFFF" stroke="#274247" stroke-width="2" stroke-miterlimit="10" width="103" height="15"/>
<line fill="none" stroke="#274247" stroke-width="2" stroke-miterlimit="10" x1="159" y1="112" x2="159" y2="127"/>
<line fill="none" stroke="#274247" stroke-width="2" stroke-miterlimit="10" x1="195" y1="112" x2="195" y2="127"/>
<rect x="295" y="1" fill="#FFFFFF" stroke="#274247" stroke-width="2" stroke-miterlimit="10" width="58" height="126"/>
<rect x="294" fill="#274247" width="60" height="13"/>
<rect x="327" y="71" fill="#274247" width="13" height="13"/>
<rect x="327" y="50" fill="#274247" width="13" height="13"/>
<rect x="327" y="29" fill="#274247" width="13" height="13"/>
<rect x="238" y="37" fill="#274247" width="77" height="89"/>
<rect x="263" y="97" fill="#FFFFFF" width="27" height="29"/>
<rect x="250" y="71" fill="#FFFFFF" width="13" height="13"/>
<rect x="250" y="50" fill="#FFFFFF" width="13" height="13"/>
<rect x="270" y="71" fill="#FFFFFF" width="13" height="13"/>
<rect x="270" y="50" fill="#FFFFFF" width="13" height="13"/>
<rect x="290" y="71" fill="#FFFFFF" width="13" height="13"/>
<rect x="290" y="50" fill="#FFFFFF" width="13" height="13"/>
<line fill="none" stroke="#274247" stroke-width="2" stroke-linecap="round" stroke-miterlimit="10" x1="229" y1="127" x2="352" y2="127"/>
<rect x="353" y="77" fill="#274247" stroke="#274247" stroke-width="2" stroke-miterlimit="10" width="127" height="50"/>
<line fill="none" stroke="#FFFFFF" stroke-width="2" stroke-linecap="round" stroke-miterlimit="10" x1="362" y1="103" x2="471" y2="103"/>
<polygon fill="#FFFFFF" stroke="#274247" stroke-width="2" stroke-miterlimit="10" points="378,127 378,36.6 416,2 457,36.6 
	457,127 "/>
<rect x="395" y="47" fill="#FFFFFF" stroke="#274247" stroke-width="2" stroke-miterlimit="10" width="44" height="11"/>
<rect x="395" y="72" fill="#FFFFFF" stroke="#274247" stroke-width="2" stroke-miterlimit="10" width="44" height="11"/>
<rect x="395" y="103" fill="#FFFFFF" stroke="#274247" stroke-width="2" stroke-miterlimit="10" width="44" height="24"/>
<line fill="none" stroke="#274247" stroke-width="2" stroke-miterlimit="10" x1="417" y1="103" x2="417" y2="127"/>
</svg>
